# xmcd CD database file
#
# Track frame offsets:
#	187
#	22225
#	38307
#	52615
#	67242
#	82860
#	95497
#	111242
#	134807
#	150817
#	166757
#	186730
#	205155
#	220167
#	239622
#	260760
#
# Disc length: 3676 seconds
#
# Revision: 0
# Processed by: cddbd v1.5.1PL0 Copyright (c) Steve Scherf et al.
# Submitted via: CDex 1.51
#
DISCID=df0e5a10
DTITLE=大塚博堂 - 大塚博堂ストーリー
DYEAR=1900
DGENRE=Pop
TTITLE0=ダスティン･ホフマンになれなかったよ
TTITLE1=結婚する気もないのに
TTITLE2=季節の中に埋もれて
TTITLE3=旅でもしようか
TTITLE4=娘をよろしく
TTITLE5=過ぎ去りし想い出は
TTITLE6=哀しみ通せんぼ
TTITLE7=私はもう女です
TTITLE8=翌朝
TTITLE9=めぐり逢い紡いで
TTITLE10=LOVE IS GONE
TTITLE11=ピアノコンチェルトは聞こえない
TTITLE12=途中下車
TTITLE13=もう子供でも鳥でもないんだから
TTITLE14=青春は最後のおとぎ話
TTITLE15=愁雨
EXTD=
EXTT0=
EXTT1=
EXTT2=
EXTT3=
EXTT4=
EXTT5=
EXTT6=
EXTT7=
EXTT8=
EXTT9=
EXTT10=
EXTT11=
EXTT12=
EXTT13=
EXTT14=
EXTT15=
PLAYORDER=
